<?xml version="1.0" encoding="utf-8"?>
<svg xmlns="http://www.w3.org/2000/svg" viewBox="10.4641 39.825 79.0732 26.579" width="79.0732px" height="26.579px">
  <g>
    <path d="M87.281 43.959c-.041-.037-.095-.047-.142-.071a.663.663 0 00-.486-.219h-.33l-8.691-1.827-1.821-1.819a.676.676 0 00-.477-.198h-7.938a.673.673 0 00-.49.211l-1.693 1.788-9.529 1.859a.682.682 0 00-.331.177c-.005.005-.013.005-.019.011l-.002.002-1.864 1.904c-.047.05-.061.116-.091.174-2.699.665-3.986 2.41-4.054 4.192-.001.013-.013.019-.013.032 0 .008.008.01.008.019-.001.034-.012.068-.012.103 0 .356-.087.612-.268.781-.286.269-.787.279-1.002.29-7.317 0-13.477.121-18.383.353l-.141-.704 14.711-.003c.003 0 .004.003.007.003s.004-.003.006-.003h.05c1.531-.129 4.424-1.273 4.424-4.683 0-3.423-2.908-4.48-4.445-4.562l-.029.002-.006-.002H20.983a.66.66 0 00-.302.071l-3.86 1.93c-1.106.066-2.728.591-3.667 1.999-.005.005-.007.013-.012.018-.432.657-.73 1.482-.73 2.568 0 1.326.406 2.389 1.205 3.153 1.331 1.274 3.258 1.203 3.345 1.208a.704.704 0 00.17-.029l4.969-1.529.236 1.086c-3.661.396-5.101.841-5.65 1.239-2.79.158-3.967 2.352-4.302 3.916h-1.243a.674.674 0 00-.478 1.153l1.904 1.906a.676.676 0 00.477.198h17.578c5.317 0 9.056 5.397 9.094 5.453a.674.674 0 00.558.295h15.619c.26 0 .497-.15.609-.382l3.711-7.742 4.037-6.127c2.139.427 4.513.686 7.076.686.052 0 .099-.005.152-.005.01 0 .02.005.032.005.044 0 .08-.011.126-.011 8.193-.063 14.677-2.51 15.699-5.903h1.527a.672.672 0 00.631-.438.672.672 0 00-.186-.743l-2.027-1.785zm-42.376 4.274v-4.996c.944.237 2.456.944 2.456 3.093 0 2.141-1.537 2.908-2.456 3.183v-1.28zm28.963-7.058h1.187l.596.596h-1.782v-.596zm-1.868 0h.518v.598H72v-.598zm-1.868 0h.518v.601h-.518v-.601zm-2.446 0h1.096v.604h-1.667l.571-.604zm-2.13 1.943l11.583-.016 2.676.567H62.751l2.805-.551zm-32.362 9.809c4.06-.134 8.823-.203 14.167-.211v2.444h-4.496v-1.012a.675.675 0 00-.675-.675h-3.834a.675.675 0 00-.675.675v1.012h-4.488v-2.233zm8.322 1.896v.337h-2.484v-.337h2.484zm2.039-5.157H32.911c.123-.229.215-.48.269-.757h10.375v.757zm0-6.358v.446h-1.76l1.76-.446zm-22.412-.19h17.663l-2.515.636H19.872l1.271-.636zm-6.829 6.226h-.397c-.082-.306-.156-.617-.156-.989 0-.585.129-1.039.303-1.432h.25v2.421zm3.375 5.126c.373-.169 1.551-.543 4.936-.896l.833 3.826h-5.769v-2.93zm-1.35.443v2.486h-2.548c.243-.862.902-2.181 2.548-2.486zm-3.015 4.392l-.555-.556H23.75l.122.556H13.324zm11.928 0l-1.989-9.152a.669.669 0 00-.319-.44.699.699 0 00-.54-.063l-5.575 1.717c-.279-.005-1.277-.09-2.05-.672h.209a.675.675 0 00.675-.675v-1.21h8.535l3.523 10.497h-2.469zm3.892 0l-3.523-10.497h3.038a.675.675 0 000-1.35H15.664v-1.21c0-.3-.22-.511-.492-.599.802-.482 1.676-.54 1.842-.545h26.542v2.455h-10.99a.675.675 0 00-.675.675c0 .457-.115.805-.342 1.028-.353.354-.901.359-.928.359h-1.943a.666.666 0 00-.522.248c-.06.071-.04.172-.065.259-.027.074-.088.132-.088.213 0 .021.02.032.022.053.001.013-.012.021-.009.034l1.781 8.878h-.653zm7.198-.401h22.072l-.238.499h-19.82a.675.675 0 000 1.35h19.172l-.239.498H40.23a.675.675 0 000 1.35h16.412l-.236.493H42.459a.675.675 0 000 1.35h13.299l-.291.609H40.619c-.883-1.181-4.409-5.381-9.433-5.69l-1.264-6.302c.616-.029 1.267-.056 1.922-.079v2.853c0 .372.302.675.675.675h15.517a.675.675 0 00.675-.675v-3.067c5.296.259 8.527 3.328 9.753 4.786H36.342a.675.675 0 000 1.35zm25.466-5.497H59.62a.675.675 0 000 1.35h1.299l-1.336 2.025c-1.178-1.463-4.197-4.461-9.268-5.21.112-.19.167-.446.227-.723h3.409a.675.675 0 000-1.35h-3.148c.422-1.263 1.88-2.349 4.55-2.468.63 1.861 2.936 3.42 6.257 4.456h-5.716a.675.675 0 000 1.35h6.29l-.376.57zm-5.023-6.484h3.413c.446.73 1.646 2.394 3.74 3.776-3.826-.862-6.39-2.312-7.153-3.776zm5.043 0h3.277c.348.809 1.201 2.586 2.537 3.992-3.059-.928-4.935-2.813-5.814-3.992zm9.594 4.546c-2.364-.071-4.091-3.008-4.832-4.545h9.655c-.847 1.766-2.612 4.466-4.823 4.545zm6.307-4.546h3.26c-.886 1.168-2.755 3.04-5.78 3.976 1.326-1.402 2.174-3.169 2.52-3.976zm1.234 3.726c2.049-1.374 3.231-3.003 3.672-3.726h3.227c-.748 1.437-3.206 2.858-6.899 3.726zm-23.408-5.076l.543-.554h30.089l.336.071.548.482H55.555z"/>
  </g>
</svg>