<?xml version="1.0" encoding="utf-8"?>
<svg xmlns="http://www.w3.org/2000/svg" viewBox="0.0009 -0.0008 57.6711 26.143" width="57.6711px" height="26.143px">
  <path d="M 29 -15.536 C 27.47 -15.536 26.248 -11.163 26.021 -10.284 C 25.865 -9.69 25.739 -8.706 25.739 -8.093 L 25.739 -2.091 C 25.739 -1.512 26.114 -0.955 26.656 -0.698 L 26.656 39.996 C 26.656 40.012 26.787 41.807 29 41.807 C 31.318 41.807 31.342 39.999 31.342 39.98 L 31.342 -0.698 C 31.886 -0.955 32.261 -1.512 32.261 -2.094 L 32.261 -8.093 C 32.261 -8.712 32.127 -9.695 31.958 -10.284 C 31.607 -11.517 30.361 -15.536 29 -15.536 Z M 31.706 -2.094 C 31.706 -1.686 31.395 -1.282 30.98 -1.151 L 30.787 -1.089 L 30.787 39.977 C 30.784 40.108 30.717 41.25 29 41.25 C 27.35 41.25 27.221 40.092 27.21 39.98 L 27.21 -1.092 L 27.017 -1.151 C 26.607 -1.285 26.297 -1.689 26.297 -2.094 L 26.297 -8.093 C 26.297 -8.658 26.414 -9.598 26.559 -10.145 C 27.082 -12.152 28.188 -14.981 29 -14.981 C 29.646 -14.981 30.76 -12.465 31.422 -10.132 C 31.575 -9.59 31.706 -8.658 31.706 -8.093 L 31.706 -2.094 Z" style="stroke: rgb(0, 0, 0); stroke-width: 0.64px; transform-origin: 29px 13.136px 0px;" transform="matrix(0, 1, -1, 0, 0.00000254, -3.2e-7)"/>
  <path d="M 21.428 -6.745 C 21.136 -7.367 20.718 -7.707 20.257 -7.707 C 19.797 -7.707 19.381 -7.367 19.086 -6.745 C 19.041 -6.643 17.94 -4.283 17.94 -2.303 L 17.94 17.031 C 18.127 17.039 18.312 17.05 18.497 17.077 L 18.497 -2.311 C 18.497 -4.157 19.579 -6.482 19.59 -6.507 C 19.783 -6.916 20.027 -7.152 20.257 -7.152 C 20.488 -7.152 20.732 -6.916 20.925 -6.507 C 20.935 -6.482 22.018 -4.159 22.018 -2.311 L 22.018 22.055 C 22.061 22.058 22.103 22.063 22.136 22.069 C 22.294 22.095 22.438 22.152 22.575 22.219 L 22.575 0.808 L 22.58 -2.241 L 22.602 -2.399 L 22.575 -2.429 C 22.532 -4.376 21.474 -6.646 21.428 -6.745 Z" style="stroke: rgb(0, 0, 0); stroke-width: 0.64px; transform-origin: 20.271px 7.255px 0px;" transform="matrix(0, 1, -1, 0, 0.00000288, 0.00000211)"/>
  <path d="M 8.921 5.017 C 8.776 4.993 8.637 5.09 8.61 5.24 C 8.238 7.439 6.143 8.926 3.94 8.551 C 1.738 8.176 0.254 6.081 0.626 3.881 C 1.001 1.679 3.099 0.194 5.299 0.567 C 5.446 0.591 5.585 0.495 5.609 0.347 C 5.623 0.272 5.604 0.203 5.564 0.146 C 5.524 0.09 5.462 0.05 5.39 0.036 C 2.895 -0.387 0.521 1.296 0.095 3.79 C -0.331 6.285 1.355 8.658 3.849 9.082 C 6.344 9.505 8.718 7.823 9.144 5.328 C 9.168 5.181 9.068 5.044 8.921 5.017 Z" style="stroke: rgb(0, 0, 0); stroke-width: 0.64px; transform-origin: 4.589px 4.559px 0px;" transform="matrix(0, 1, -1, 0, 0.00000261, 4.2e-7)"/>
  <path d="M 1.615 4.897 C 1.47 4.929 1.376 5.071 1.406 5.218 C 1.757 6.887 3.402 7.962 5.071 7.611 C 6.743 7.26 7.817 5.615 7.466 3.946 C 7.375 3.525 7.204 3.131 6.963 2.791 C 6.74 2.48 6.459 2.207 6.129 1.992 C 5.438 1.54 4.61 1.384 3.801 1.553 C 3.654 1.585 3.562 1.727 3.592 1.872 C 3.624 2.014 3.766 2.11 3.911 2.081 C 4.581 1.939 5.264 2.067 5.835 2.44 C 6.408 2.815 6.796 3.388 6.938 4.058 C 7.228 5.435 6.338 6.794 4.961 7.086 C 3.581 7.372 2.223 6.486 1.933 5.106 C 1.904 4.964 1.759 4.867 1.615 4.897 Z" style="stroke: rgb(0, 0, 0); stroke-width: 0.64px; transform-origin: 4.465px 4.583px 0px;" transform="matrix(0, 1, -1, 0, -0.00000158, 0.00000124)"/>
  <path d="M 5.197 5.679 C 5.071 5.754 5.028 5.92 5.106 6.046 C 5.165 6.18 5.347 6.218 5.476 6.14 C 6.309 5.642 6.585 4.554 6.086 3.715 C 5.845 3.308 5.459 3.024 5.001 2.909 C 4.54 2.793 4.066 2.863 3.659 3.104 C 2.826 3.605 2.552 4.696 3.051 5.532 C 3.053 5.537 3.059 5.542 3.064 5.548 C 3.145 5.66 3.3 5.695 3.42 5.623 C 3.549 5.548 3.592 5.382 3.514 5.253 C 3.166 4.672 3.356 3.916 3.938 3.568 C 4.219 3.399 4.548 3.351 4.867 3.431 C 5.186 3.511 5.451 3.718 5.623 3.991 C 5.969 4.575 5.778 5.331 5.197 5.679 Z" style="stroke: rgb(0, 0, 0); stroke-width: 0.64px; transform-origin: 4.567px 4.516px 0px;" transform="matrix(0, 1, -1, 0, 0.00000111, 0.00000148)"/>
  <path d="M 18.548 33.908 L 18.548 9.612 L 18.548 9.548 C 18.548 7.702 19.63 5.376 19.641 5.352 C 20.03 4.532 20.59 4.532 20.975 5.352 C 20.986 5.376 22.071 7.699 22.071 9.556 L 22.071 28.922 C 22.256 28.898 22.441 28.879 22.626 28.874 L 22.626 9.548 C 22.626 7.576 21.525 5.216 21.479 5.116 C 21.187 4.495 20.772 4.152 20.308 4.152 C 19.847 4.152 19.432 4.495 19.14 5.116 C 19.095 5.213 18.033 7.485 17.993 9.433 L 17.991 34.002 C 18.076 33.97 18.162 33.943 18.256 33.927 C 18.331 33.914 18.454 33.903 18.529 33.903 C 18.537 33.903 18.54 33.908 18.548 33.908 Z" style="stroke: rgb(0, 0, 0); stroke-width: 0.64px; transform-origin: 20.308px 19.076px 0px;" transform="matrix(0, 1, -1, 0, 0.00000257, 3.6e-7)"/>
  <path d="M 3.788 17.064 C 3.715 17.074 3.654 17.117 3.613 17.173 C 3.573 17.23 3.554 17.299 3.568 17.372 C 3.592 17.519 3.731 17.618 3.876 17.594 C 6.078 17.219 8.174 18.703 8.549 20.906 C 8.924 23.108 7.439 25.203 5.237 25.578 C 3.035 25.951 0.942 24.467 0.567 22.267 C 0.54 22.117 0.401 22.018 0.256 22.044 C 0.109 22.069 0.01 22.208 0.034 22.355 C 0.46 24.85 2.834 26.532 5.328 26.106 C 7.823 25.683 9.505 23.309 9.082 20.815 C 8.656 18.323 6.282 16.638 3.788 17.064 Z" style="stroke: rgb(0, 0, 0); stroke-width: 0.64px; transform-origin: 4.589px 21.584px 0px;" transform="matrix(0, 1, -1, 0, 3.4e-7, -0.00000298)"/>
  <path d="M 5.133 18.534 C 4.323 18.363 3.495 18.518 2.804 18.971 C 2.472 19.186 2.193 19.459 1.971 19.772 C 1.727 20.113 1.556 20.506 1.467 20.924 C 1.116 22.596 2.191 24.241 3.863 24.592 C 5.532 24.941 7.174 23.869 7.528 22.197 C 7.555 22.052 7.464 21.908 7.316 21.878 C 7.174 21.849 7.03 21.943 6.997 22.087 C 6.708 23.467 5.35 24.351 3.972 24.065 C 2.593 23.775 1.706 22.417 1.995 21.037 C 2.134 20.37 2.523 19.796 3.096 19.421 C 3.67 19.049 4.353 18.92 5.02 19.062 C 5.165 19.092 5.307 18.995 5.342 18.853 C 5.371 18.709 5.277 18.564 5.133 18.534 Z" style="stroke: rgb(0, 0, 0); stroke-width: 0.64px; transform-origin: 4.465px 21.562px 0px;" transform="matrix(0, 1, -1, 0, 4.3e-7, -0.00000179)"/>
  <path d="M 5.628 22.717 C 5.749 22.789 5.904 22.754 5.985 22.642 C 5.99 22.637 5.993 22.628 5.998 22.626 C 6.496 21.79 6.223 20.699 5.39 20.198 C 4.983 19.957 4.508 19.888 4.047 20.003 C 3.592 20.118 3.201 20.402 2.962 20.809 C 2.464 21.648 2.74 22.736 3.573 23.234 C 3.702 23.312 3.881 23.274 3.943 23.14 C 4.021 23.014 3.978 22.848 3.849 22.773 C 3.27 22.425 3.08 21.669 3.426 21.085 C 3.597 20.812 3.86 20.606 4.181 20.525 C 4.5 20.445 4.83 20.493 5.111 20.662 C 5.693 21.01 5.883 21.768 5.534 22.35 C 5.459 22.476 5.5 22.642 5.628 22.717 Z" style="stroke: rgb(0, 0, 0); stroke-width: 0.64px; transform-origin: 4.481px 21.61px 0px;" transform="matrix(0, 1, -1, 0, 0.00000151, 0.00000352)"/>
</svg>