<svg xmlns="http://www.w3.org/2000/svg" viewBox="0 0 60 60" fill="currentColor"><path d="M18.293,35.707 L12.293,29.707 C11.902,29.316 11.902,28.684 12.293,28.293 C12.684,27.902 13.316,27.902 13.707,28.293 L19.707,34.293 C20.098,34.684 20.098,35.316 19.707,35.707 C19.512,35.902 19.256,36 19,36 C18.744,36 18.488,35.902 18.293,35.707 M34.293,19.707 L28.293,13.707 C27.902,13.316 27.902,12.684 28.293,12.293 C28.684,11.902 29.316,11.902 29.707,12.293 L35.707,18.293 C36.098,18.684 36.098,19.316 35.707,19.707 C35.512,19.902 35.256,20 35,20 C34.744,20 34.488,19.902 34.293,19.707 M28,25 C28,26.654 26.654,28 25,28 C23.346,28 22,26.654 22,25 C22,23.346 23.346,22 25,22 C26.654,22 28,23.346 28,25 M20,25 C20,27.757 22.243,30 25,30 C27.757,30 30,27.757 30,25 C30,22.243 27.757,20 25,20 C22.243,20 20,22.243 20,25 M4.707,7.293 L2.414,5 L5,2.414 L7.293,4.707 C7.897,5.311 7.897,6.689 7.293,7.293 C6.721,7.865 5.279,7.865 4.707,7.293 M59,24 L44,24 L44,22 C44,21.434 43.907,19.493 42.707,18.293 L30.707,6.293 C30.316,5.902 29.684,5.902 29.293,6.293 L11.293,24.293 C10.902,24.684 10.902,25.316 11.293,25.707 C11.684,26.098 12.316,26.098 12.707,25.707 L30,8.414 L41.293,19.707 C41.716,20.13 42,21.051 42,22 L42,24 L37,24 C36.447,24 36,24.448 36,25 C36,25.552 36.447,26 37,26 L42,26 L42,29 C42,30.067 41.769,30.817 41.293,31.293 L37,35.586 L31.707,30.293 C31.316,29.902 30.684,29.902 30.293,30.293 C29.902,30.684 29.902,31.316 30.293,31.707 L35.586,37 L31.293,41.293 C30.772,41.814 29.767,42 29,42 L26,42 L26,37 C26,36.448 25.552,36 25,36 C24.448,36 24,36.448 24,37 L24,42 L22,42 C21.408,42 20.322,41.908 19.707,41.293 L8,29.586 L8,24.414 L24.707,7.707 C24.993,7.421 25.079,6.991 24.924,6.617 C24.769,6.244 24.404,6 24,6 L18,6 C17.735,6 17.481,6.105 17.293,6.293 L12.5,11.086 L9.29,7.876 C10.042,6.432 9.857,4.443 8.707,3.293 L5.707,0.293 C5.316,-0.098 4.684,-0.098 4.293,0.293 L0.293,4.293 C-0.098,4.684 -0.098,5.316 0.293,5.707 L3.293,8.707 C3.956,9.37 4.942,9.75 6,9.75 C6.681,9.75 7.321,9.578 7.876,9.29 L11.086,12.5 L6.293,17.293 C5.902,17.684 5.902,18.316 6.293,18.707 C6.684,19.098 7.316,19.098 7.707,18.707 L13.106,13.309 C13.145,13.279 13.191,13.264 13.228,13.228 C13.264,13.191 13.279,13.145 13.309,13.105 L18.414,8 L21.586,8 L6.293,23.293 C6.105,23.48 6,23.735 6,24 L6,30 C6,30.265 6.105,30.52 6.293,30.707 L18.293,42.707 C19.361,43.776 20.898,44 22,44 L24,44 L24,59 C24,59.552 24.448,60 25,60 C25.552,60 26,59.552 26,59 L26,44 L29,44 C29.726,44 31.54,43.874 32.707,42.707 L37,38.414 L52.293,53.707 C52.488,53.902 52.744,54 53,54 C53.256,54 53.512,53.902 53.707,53.707 C54.098,53.316 54.098,52.684 53.707,52.293 L38.414,37 L42.707,32.707 C43.565,31.849 44,30.602 44,29 L44,26 L59,26 C59.553,26 60,25.552 60,25 C60,24.448 59.553,24 59,24"/></svg>
