<?xml version="1.0" encoding="utf-8"?>
<svg xmlns="http://www.w3.org/2000/svg" viewBox="-5 -10 42.498 31.137" width="42.498px" height="31.137px">
  <path d="M 36.509 4.056 C 33.916 2.936 27.937 2.191 27.618 2.152 L 18.322 0.511 C 16.339 0.16 14.533 -0.882 13.238 -2.424 L 8.78 -7.73 C 7.487 -9.172 5.636 -10 3.699 -10 L 1.301 -10 L -0.665 2.15 L -3.637 2.15 L -4.295 1.915 C -4.458 1.856 -4.638 1.882 -4.777 1.98 C -4.916 2.08 -5 2.24 -5 2.413 L -5 4.926 C -5 5.098 -4.916 5.259 -4.777 5.357 C -4.687 5.419 -4.581 5.453 -4.473 5.453 C -4.413 5.453 -4.354 5.443 -4.295 5.421 L -3.637 5.186 L -2.63 5.186 L -2.63 5.96 L -3.637 5.96 L -4.295 5.725 C -4.458 5.666 -4.638 5.692 -4.777 5.79 C -4.916 5.888 -5 6.05 -5 6.221 L -5 8.734 C -5 8.906 -4.916 9.067 -4.777 9.165 C -4.687 9.227 -4.581 9.261 -4.473 9.261 C -4.413 9.261 -4.354 9.251 -4.295 9.229 L -3.637 8.994 L -2.109 8.994 L -2.109 8.988 L -0.667 8.988 L 1.301 21.137 L 3.699 21.137 C 5.636 21.137 7.487 20.311 8.784 18.861 L 13.237 13.563 C 14.531 12.021 16.337 10.979 18.32 10.628 L 27.616 8.987 C 27.936 8.948 33.914 8.203 36.507 7.083 C 37.11 6.824 37.498 6.231 37.498 5.571 C 37.498 4.911 37.111 4.317 36.509 4.056 Z M 27.563 8.469 L 22.934 8.469 C 23.183 7.576 23.279 6.689 23.291 5.876 L 28.472 5.876 C 28.486 6.654 28.429 7.512 28.239 8.379 C 27.871 8.43 27.626 8.462 27.563 8.469 Z M 3.458 19.952 L 3.237 8.993 L 3.683 8.993 L 3.458 19.952 Z M 0.829 8.469 L 0.829 6.487 L 5.329 6.487 C 5.284 7.128 5.178 7.802 4.98 8.469 L 0.829 8.469 Z M 0.829 2.672 L 4.976 2.672 C 5.06 2.995 5.229 3.724 5.309 4.664 L 0.829 4.664 L 0.829 2.672 Z M 3.458 -8.811 L 3.683 2.149 L 3.237 2.149 L 3.458 -8.811 Z M 23.289 5.353 C 23.254 4.149 23.05 3.165 22.927 2.672 L 27.563 2.672 C 27.614 2.678 27.783 2.699 28.037 2.734 C 28.139 3.103 28.378 4.09 28.453 5.353 L 23.289 5.353 Z M 17.646 5.353 C 17.61 4.149 17.407 3.165 17.283 2.672 L 22.386 2.672 C 22.49 3.071 22.721 4.086 22.76 5.353 L 17.646 5.353 Z M 11.762 5.353 C 11.726 4.149 11.523 3.165 11.399 2.672 L 16.743 2.672 C 16.847 3.071 17.078 4.086 17.117 5.353 L 11.762 5.353 Z M 5.517 2.672 L 10.86 2.672 C 10.964 3.071 11.195 4.086 11.235 5.353 L 5.881 5.353 L 5.881 4.664 L 5.84 4.664 C 5.765 3.777 5.615 3.067 5.517 2.672 Z M 5.858 6.488 L 5.881 6.488 L 5.881 5.972 C 5.881 5.941 5.881 5.908 5.883 5.876 L 11.239 5.876 C 11.229 6.693 11.127 7.587 10.865 8.47 L 5.525 8.47 C 5.713 7.796 5.815 7.126 5.858 6.488 Z M 11.765 5.876 L 17.123 5.876 C 17.111 6.693 17.011 7.586 16.749 8.47 L 11.409 8.47 C 11.658 7.577 11.754 6.689 11.766 5.876 L 11.765 5.876 Z M 17.65 5.876 L 22.764 5.876 C 22.754 6.693 22.652 7.586 22.39 8.47 L 17.291 8.47 C 17.542 7.577 17.638 6.689 17.649 5.876 L 17.65 5.876 Z M 28.601 2.813 C 30.143 3.034 33.054 3.498 35.103 4.111 L 35.103 7.028 C 33.136 7.618 30.372 8.068 28.791 8.299 C 29.265 5.916 28.825 3.692 28.601 2.813 Z M 8.387 -7.387 L 12.839 -2.088 C 14.212 -0.453 16.128 0.652 18.232 1.024 L 24.6 2.148 L 4.206 2.15 L 3.967 -9.469 C 5.658 -9.397 7.258 -8.647 8.387 -7.387 Z M 1.748 -9.475 L 2.951 -9.475 L 2.843 -4.094 L 0.877 -4.094 L 1.748 -9.475 Z M 0.79 -3.573 L 2.832 -3.573 L 2.716 2.151 L -0.136 2.151 L 0.79 -3.573 Z M -2.107 2.672 L 0.307 2.672 L 0.307 4.664 L -2.109 4.664 L -2.107 2.672 Z M -4.477 4.924 L -4.475 2.407 C -4.473 2.407 -4.473 2.405 -4.471 2.405 L -4.469 2.405 L -3.942 2.594 L -3.942 4.738 L -4.477 4.924 Z M -3.419 4.664 L -3.419 2.672 L -2.63 2.672 L -2.63 4.664 L -3.419 4.664 Z M -2.107 5.187 L 5.347 5.187 C 5.358 5.436 5.362 5.696 5.356 5.965 L -2.105 5.965 L -2.105 5.959 L -2.107 5.187 Z M -4.477 8.734 L -4.475 6.217 C -4.473 6.217 -4.473 6.215 -4.471 6.215 L -4.469 6.215 L -3.942 6.403 L -3.942 8.548 L -4.477 8.734 Z M -3.419 6.482 L -2.63 6.482 L -2.63 8.474 L -3.419 8.474 L -3.419 6.482 Z M -2.107 8.47 L -2.107 6.488 L 0.309 6.488 L 0.309 8.47 L -2.107 8.47 Z M 0.309 8.991 L 2.718 8.991 L 2.832 14.715 L 0.792 14.715 L -0.136 8.991 L 0.309 8.991 Z M 0.877 15.238 L 2.843 15.238 L 2.951 20.618 L 1.748 20.618 L 0.877 15.238 Z M 18.232 10.115 C 16.128 10.487 14.214 11.592 12.839 13.228 L 8.392 18.521 C 7.258 19.786 5.658 20.538 3.967 20.609 L 4.206 8.989 L 24.6 8.989 L 18.232 10.115 Z M 36.302 6.605 C 36.098 6.693 35.869 6.779 35.624 6.862 L 35.624 4.278 C 35.869 4.362 36.098 4.446 36.302 4.535 C 36.711 4.713 36.976 5.118 36.976 5.571 C 36.976 6.023 36.711 6.429 36.302 6.605 Z M 30.498 4.662 L 30.662 4.678 C 30.684 4.68 31.181 4.736 31.42 5.347 L 31.485 5.514 L 32.498 5.514 L 32.449 5.21 C 32.357 4.634 31.81 3.496 30.414 3.308 L 29.986 3.252 L 30.439 4.507 L 30.498 4.662 Z M 31.843 4.991 L 31.834 4.991 C 31.559 4.446 31.125 4.256 30.882 4.192 L 30.79 3.935 C 31.424 4.17 31.716 4.668 31.844 4.991 L 31.843 4.991 Z M 32.449 5.931 L 32.498 5.628 L 31.485 5.628 L 31.42 5.794 C 31.181 6.405 30.684 6.462 30.664 6.462 L 30.496 6.476 L 29.987 7.89 L 30.414 7.833 C 31.812 7.645 32.357 6.507 32.449 5.931 Z M 30.882 6.95 C 31.125 6.883 31.559 6.693 31.834 6.151 L 31.843 6.151 C 31.716 6.474 31.424 6.971 30.79 7.206 L 30.882 6.95 Z" style="" transform="matrix(1, 0, 0, 1, -1.7763568394002505e-15, -3.552713678800501e-15)"/>
</svg>