<?xml version="1.0" encoding="utf-8"?>
<svg xmlns="http://www.w3.org/2000/svg" viewBox="-5 -10 41.7926 39.828" width="41.7926px" height="39.828px">
  <path d="M 28.554 29.527 L 33.364 24.717 C 33.733 24.347 33.487 23.771 32.995 23.771 L 28.185 23.771 C 27.898 23.771 27.609 24.018 27.609 24.347 L 27.609 29.157 C 27.609 29.651 28.225 29.856 28.554 29.527 L 28.554 29.527 Z" style="stroke-width: 0.191px;" transform="matrix(1, 0, 0, 1, 0, -7.105427357601002e-15)"/>
  <path d="M 27.609 17.892 L 27.609 22.702 C 27.609 22.989 27.856 23.278 28.185 23.278 L 32.995 23.278 C 33.488 23.278 33.735 22.662 33.364 22.333 L 28.554 17.523 C 28.225 17.193 27.609 17.4 27.609 17.892 L 27.609 17.892 Z" style="stroke-width: 0.191px;" transform="matrix(1, 0, 0, 1, 0, -7.105427357601002e-15)"/>
  <path d="M 26.252 17.523 L 21.4 22.333 C 21.031 22.702 21.278 23.278 21.769 23.278 L 26.58 23.278 C 26.867 23.278 27.155 23.031 27.155 22.702 L 27.155 17.892 C 27.155 17.398 26.58 17.193 26.25 17.523 L 26.252 17.523 Z" style="stroke-width: 0.191px;" transform="matrix(1, 0, 0, 1, 0, -7.105427357601002e-15)"/>
  <path d="M 27.157 29.157 L 27.157 24.347 C 27.157 24.06 26.911 23.771 26.581 23.771 L 21.812 23.771 C 21.318 23.771 21.071 24.387 21.442 24.717 L 26.252 29.527 C 26.581 29.856 27.157 29.649 27.157 29.157 Z" style="stroke-width: 0.191px;" transform="matrix(1, 0, 0, 1, 0, -7.105427357601002e-15)"/>
  <path d="M -4.839 19.377 C -2.661 22.044 -0.162 25.164 2.023 27.831 C 2.617 28.55 3.308 29.179 3.978 29.828 C 7.664 25.904 11.518 22.121 15.211 18.197 C 15.113 18.099 14.994 17.96 14.876 17.806 C 14.896 17.667 14.862 17.52 14.764 17.401 L 12.02 14.134 L 12.97 13.352 C 14.059 14.679 15.155 16.005 16.244 17.332 C 17.207 18.504 18.22 19.712 19.602 20.333 C 19.609 20.34 19.623 20.34 19.637 20.347 C 20.195 20.606 20.796 20.745 21.403 20.745 C 22.22 20.745 23.03 20.487 23.742 19.998 L 25.634 22.302 C 25.187 23.042 25.292 24.117 25.962 24.934 C 26.471 25.555 27.183 25.89 27.861 25.89 C 28.273 25.89 28.67 25.765 28.992 25.5 C 29.836 24.808 29.857 23.426 29.033 22.421 C 28.65 21.953 28.133 21.625 27.588 21.506 C 27.176 21.416 26.779 21.457 26.429 21.604 L 24.572 19.342 C 26.227 17.876 26.443 15.356 25.033 13.631 L 20.118 7.635 L 21.605 6.413 L 23.023 8.088 C 23.518 8.961 24.007 9.82 24.942 9.903 C 25.62 9.966 26.234 9.554 26.786 9.163 C 30.046 6.846 33.32 4.395 36.573 2.078 C 36.615 1.659 36.65 1.24 36.692 0.821 C 36.678 0.828 36.671 0.835 36.664 0.842 C 36.727 0.765 36.776 0.674 36.79 0.577 C 36.804 0.43 36.762 0.283 36.664 0.172 L 28.021 -9.818 C 27.923 -9.93 27.777 -10 27.63 -10 C 27.47 -9.986 27.337 -9.937 27.232 -9.825 L 17.605 0.995 C 17.431 1.191 17.431 1.484 17.598 1.68 L 20.935 5.624 L 19.455 6.832 L 15.176 1.61 C 14.575 0.877 13.766 0.402 12.907 0.207 L 13.396 -4.708 C 13.863 -4.932 14.233 -5.357 14.331 -5.867 C 14.492 -6.705 13.891 -7.612 13.053 -7.787 C 12.216 -7.961 11.301 -7.368 11.113 -6.537 L 11.092 -6.447 C 10.959 -5.637 11.539 -4.792 12.327 -4.59 L 11.86 0.102 C 11.085 0.123 10.317 0.36 9.64 0.821 L 5.995 -3.619 C 6.072 -3.759 6.135 -3.905 6.17 -4.066 C 6.331 -4.904 5.73 -5.811 4.892 -5.986 C 4.055 -6.16 3.14 -5.567 2.952 -4.736 L 2.945 -4.645 C 2.805 -3.808 3.433 -2.914 4.278 -2.76 C 4.606 -2.705 4.941 -2.76 5.241 -2.907 L 8.837 1.477 C 8.264 1.973 7.866 2.601 7.643 3.278 L 3.028 2.818 C 2.959 2.811 2.896 2.818 2.833 2.838 C 2.707 2.203 2.205 1.631 1.562 1.498 C 0.725 1.324 -0.19 1.917 -0.378 2.748 L -0.406 2.831 C -0.546 3.669 0.082 4.563 0.927 4.716 C 1.639 4.842 2.386 4.416 2.7 3.781 C 2.763 3.823 2.833 3.851 2.917 3.858 L 7.434 4.305 C 7.378 5.149 7.573 6.015 8.048 6.769 C 8.076 6.846 8.104 6.929 8.139 7.006 C 8.606 8.046 9.339 8.933 10.059 9.813 C 10.812 10.727 11.559 11.635 12.313 12.549 L 11.357 13.331 L 8.264 9.638 C 8.097 9.436 7.811 9.394 7.587 9.526 L -4.721 17.171 C -4.846 17.248 -4.937 17.38 -4.958 17.527 C -4.979 17.66 -4.944 17.799 -4.867 17.904 C -4.909 17.862 -4.951 17.82 -5 17.778 C -4.944 18.316 -4.888 18.846 -4.839 19.377 Z M 22.206 5.505 L 26.911 1.03 L 29.871 4.549 L 24.621 8.368 L 22.206 5.505 Z M 30.716 3.921 L 27.665 0.297 L 31.896 -3.731 L 35.498 0.437 L 30.716 3.921 Z M 27.616 -8.681 L 31.212 -4.52 L 26.988 -0.499 L 23.756 -4.345 L 27.616 -8.681 Z M 23.058 -3.556 L 26.234 0.221 L 21.529 4.702 L 18.694 1.351 L 23.058 -3.556 Z M 16.579 4.975 L 23.728 13.701 C 22.464 13.471 21.131 13.792 20.091 14.644 C 19.092 15.461 18.52 16.647 18.464 17.89 L 11.546 9.45 C 12.341 7.286 14.268 5.547 16.509 5.003 C 16.544 5.003 16.558 4.982 16.579 4.975 Z M 27.372 22.539 C 27.686 22.609 28 22.805 28.231 23.091 C 28.677 23.643 28.726 24.376 28.335 24.697 C 27.944 25.018 27.232 24.822 26.786 24.278 C 26.339 23.733 26.29 22.993 26.681 22.672 C 26.827 22.553 27.002 22.519 27.149 22.519 C 27.232 22.512 27.309 22.526 27.372 22.539 Z M 23.909 18.539 L 22.632 16.975 C 22.45 16.752 22.122 16.717 21.892 16.906 C 21.668 17.087 21.633 17.422 21.822 17.646 L 23.085 19.189 C 22.017 19.887 20.642 19.845 19.63 19.119 C 19.63 19.07 19.637 19.014 19.623 18.965 C 19.281 17.681 19.728 16.298 20.761 15.454 C 21.836 14.574 23.309 14.42 24.524 15.07 C 24.579 15.098 24.635 15.111 24.691 15.118 C 25.159 16.291 24.873 17.66 23.909 18.539 Z M 11.978 1.142 C 12.872 1.142 13.759 1.526 14.366 2.273 L 15.874 4.116 C 13.668 4.786 11.769 6.448 10.799 8.542 L 9.158 6.539 C 8.613 5.875 8.397 5.045 8.481 4.249 C 8.578 4.165 8.655 4.046 8.669 3.9 C 8.676 3.802 8.655 3.718 8.613 3.634 C 8.788 3.09 9.109 2.58 9.591 2.196 L 10.024 1.84 C 10.596 1.372 11.287 1.142 11.978 1.142 Z M 3.985 27.07 L 0.25 22.512 L 4.906 18.937 L 8.285 22.903 L 3.985 27.07 Z M 9.039 22.169 L 5.737 18.295 L 10.854 14.371 L 13.647 17.702 L 9.039 22.169 Z M 7.748 10.664 L 10.184 13.569 L 5.06 17.499 L 2.177 14.12 L 7.748 10.664 Z M 1.276 14.686 L 4.222 18.141 L -0.42 21.702 L -3.66 17.743 L 1.276 14.686 Z" style="stroke-width: 1px;" transform="matrix(1, 0, 0, 1, 0, -7.105427357601002e-15)"/>
</svg>