<?xml version="1.0" encoding="utf-8"?>
<svg xmlns="http://www.w3.org/2000/svg" viewBox="1.784 2.388 94.6 40.1" width="94.6px" height="40.1px">
  <path d="M 69.034 51.738 L 63.434 41.238 L 59.934 27.138 L 59.934 7.138 C 60.534 7.038 61.134 6.838 61.634 6.738 L 68.934 10.138 L 66.034 -0.962 L 56.234 -15.662 C 53.434 -20.762 50.034 -24.062 49.734 -24.262 L 49.034 -24.862 L 48.334 -24.262 C 48.034 -24.062 44.434 -20.662 41.534 -15.262 L 32.034 -0.962 L 29.134 10.238 L 36.534 6.738 C 36.934 6.938 37.534 7.038 38.034 7.238 L 38.034 27.038 L 34.534 41.238 L 29.034 51.738 L 29.034 65.838 L 34.734 65.637 L 34.734 67.838 L 40.134 67.838 L 40.134 66.538 L 41.534 66.538 L 41.534 68.137 L 46.034 68.137 L 46.034 69.738 L 52.034 69.738 L 52.034 68.137 L 56.734 68.137 L 56.734 66.538 L 58.034 66.538 L 58.034 67.838 L 63.434 67.838 L 63.434 65.637 L 69.134 65.838 L 69.134 51.738 L 69.034 51.738 Z M 64.234 -0.162 L 66.034 6.838 L 61.634 4.738 L 61.234 4.938 C 60.934 5.038 60.334 5.238 59.934 5.338 L 59.934 -2.062 C 59.934 -2.462 59.934 -2.962 59.934 -3.362 C 59.934 -3.462 59.934 -3.562 59.934 -3.762 C 59.934 -4.062 59.934 -4.362 59.834 -4.662 C 59.834 -4.762 59.834 -4.862 59.834 -5.062 C 59.834 -5.362 59.734 -5.762 59.734 -6.062 C 59.734 -6.162 59.734 -6.262 59.734 -6.362 C 59.634 -6.762 59.534 -7.162 59.534 -7.662 L 64.234 -0.162 Z M 37.034 4.838 L 36.634 4.638 L 32.034 6.838 L 33.834 -0.162 L 38.734 -7.462 C 38.634 -7.062 38.534 -6.662 38.534 -6.162 C 38.534 -6.062 38.534 -6.062 38.534 -5.962 C 38.434 -5.662 38.434 -5.262 38.434 -4.862 C 38.434 -4.762 38.434 -4.662 38.434 -4.562 C 38.434 -4.262 38.334 -3.862 38.334 -3.562 C 38.334 -3.462 38.334 -3.362 38.334 -3.262 C 38.334 -2.862 38.334 -2.362 38.334 -1.962 L 38.334 5.438 C 37.834 5.138 37.334 5.038 37.034 4.838 Z M 30.934 63.838 L 30.934 52.238 L 34.734 45.137 L 34.734 63.637 L 30.934 63.838 Z M 36.634 41.338 L 38.234 35.038 L 38.234 64.738 L 38.234 65.938 L 36.734 65.938 L 36.634 41.338 Z M 45.234 66.238 L 43.334 66.238 L 43.334 55.538 C 43.334 54.538 44.034 53.538 44.434 53.038 C 44.434 53.038 44.434 53.137 44.434 53.137 C 44.734 54.338 45.134 55.637 45.134 57.137 L 45.134 66.238 L 45.234 66.238 Z M 54.734 66.238 L 52.834 66.238 L 52.834 57.238 C 52.834 55.538 53.034 54.038 53.534 53.038 L 54.034 53.038 C 54.334 53.738 54.834 55.038 54.834 56.238 L 54.834 66.238 L 54.734 66.238 Z M 55.934 52.738 L 55.934 -1.262 C 55.934 -8.462 52.234 -14.462 50.034 -17.462 L 48.534 -16.262 C 50.634 -13.462 54.034 -7.862 54.034 -1.262 L 54.034 51.137 L 52.434 51.137 L 52.034 51.637 C 51.334 52.938 50.934 54.938 50.934 57.238 L 50.934 67.838 L 47.234 67.838 L 47.234 57.238 C 47.234 55.438 46.834 53.938 46.434 52.738 C 46.334 52.438 46.234 52.137 46.234 51.838 L 46.034 51.137 L 43.934 51.137 L 43.634 51.338 C 43.534 51.438 41.534 53.238 41.534 55.538 L 41.534 64.538 L 40.134 64.538 L 40.134 7.138 L 40.134 -2.062 C 40.134 -2.562 40.134 -2.962 40.134 -3.462 C 40.134 -3.562 40.134 -3.662 40.134 -3.762 C 40.134 -4.162 40.234 -4.562 40.234 -5.062 C 40.234 -5.162 40.234 -5.362 40.334 -5.462 C 40.434 -5.862 40.434 -6.162 40.534 -6.562 C 40.534 -6.762 40.634 -6.962 40.634 -7.162 C 40.734 -7.462 40.734 -7.662 40.834 -7.962 C 40.934 -8.262 41.034 -8.562 41.134 -8.862 C 41.234 -9.062 41.234 -9.262 41.334 -9.462 C 41.434 -9.862 41.634 -10.262 41.734 -10.662 C 41.734 -10.762 41.834 -10.862 41.834 -10.962 C 42.034 -11.462 42.234 -11.962 42.434 -12.362 C 42.434 -12.362 42.434 -12.362 42.434 -12.462 C 42.634 -12.962 42.834 -13.462 43.134 -13.862 C 43.134 -13.862 43.134 -13.862 43.134 -13.862 C 45.234 -18.062 47.934 -21.062 49.134 -22.262 C 50.234 -21.062 52.634 -18.362 54.734 -14.562 C 54.934 -14.262 55.034 -13.962 55.234 -13.562 C 55.334 -13.362 55.434 -13.162 55.534 -12.962 C 55.734 -12.662 55.834 -12.362 55.934 -11.962 C 56.034 -11.762 56.134 -11.462 56.234 -11.262 C 56.334 -10.962 56.434 -10.662 56.534 -10.362 C 56.634 -10.162 56.734 -9.862 56.834 -9.662 C 56.934 -9.362 57.034 -9.062 57.134 -8.762 C 57.234 -8.562 57.234 -8.362 57.334 -8.162 C 57.434 -7.762 57.534 -7.462 57.634 -7.062 C 57.634 -6.862 57.734 -6.762 57.734 -6.562 C 57.834 -6.162 57.934 -5.762 57.934 -5.362 C 57.934 -5.262 57.934 -5.162 58.034 -4.962 C 58.134 -4.562 58.134 -4.062 58.134 -3.662 C 58.134 -3.562 58.134 -3.462 58.134 -3.362 C 58.134 -2.862 58.234 -2.462 58.234 -1.962 L 58.234 7.238 L 58.234 27.438 L 58.234 64.637 L 56.834 64.637 L 56.834 56.238 C 56.634 54.938 56.234 53.637 55.934 52.738 Z M 61.434 65.938 L 59.934 65.938 L 59.934 35.238 L 61.434 41.438 L 61.434 65.938 Z M 67.134 63.838 L 63.334 63.738 L 63.334 45.137 L 67.134 52.238 L 67.134 63.838 Z M 43.234 2.238 L 45.134 2.238 L 45.134 24.738 L 43.234 24.738 L 43.234 2.238 Z M 43.234 -4.162 L 45.134 -4.162 L 45.134 -1.762 L 43.234 -1.762 L 43.234 -4.162 Z" style="transform-origin: 49.084px 22.438px 0px;" transform="matrix(0, 1, -1, 0, -0.00000446, -0.00000372)"/>
</svg>