<svg xmlns="http://www.w3.org/2000/svg" viewBox="0 0 100 100" fill="currentColor"><path d="m37.5 6.25c-0.85938 0.003906-1.5547 0.69922-1.5547 1.5547-0.003906 0.41797 0.16016 0.81641 0.44922 1.1094 0.29297 0.29688 0.69141 0.46094 1.1055 0.46484h3.1289v12.504h-7.8086c-0.86328-0.003906-1.5664 0.69141-1.5703 1.5547v15.633c0 0.41797 0.16797 0.81641 0.46094 1.1055 0.29297 0.29297 0.69141 0.45703 1.1094 0.45703h6.0742l-26.039 31.812c-0.26172 0.32031-0.38672 0.73047-0.34766 1.1445 0.039063 0.41406 0.24219 0.79297 0.56641 1.0586 0.32031 0.26172 0.73438 0.38672 1.1484 0.34766 0.41016-0.042969 0.79297-0.24609 1.0547-0.57031l24.164-29.535-8.1562 40.734c-0.082031 0.40625 0 0.83203 0.23047 1.1758 0.23047 0.34766 0.58594 0.58984 0.99609 0.67188 0.40625 0.082032 0.83203-0.003906 1.1797-0.23438 0.34375-0.23438 0.58203-0.59375 0.66406-1.0039l8.4766-42.426 41.914 49.387c0.55469 0.66016 1.5391 0.74219 2.1992 0.1875 0.31641-0.26953 0.51563-0.64844 0.55078-1.0625 0.035156-0.41406-0.097656-0.82422-0.36719-1.1406l-35.98-42.414c2.0898 0.80078 4.3438 1.2344 6.6602 1.2383 0.86719 0.003906 1.5742-0.69922 1.5703-1.5703v-10.098l6.4336-4.2891v0.003906c0.42578 0.21094 0.89844 0.32422 1.375 0.32422 0.82812 0 1.625-0.32812 2.2109-0.91406 0.58594-0.58594 0.91406-1.3828 0.91406-2.2109s-0.32812-1.625-0.91406-2.2109c-0.58594-0.58594-1.3828-0.91406-2.2109-0.91406-0.48047 0.003906-0.94922 0.11719-1.3789 0.32812l-6.4297-4.2852v-10.109c-0.003906-0.86328-0.70703-1.5586-1.5703-1.5547-5.4648 0.007813-10.555 2.3984-14.051 6.3789v-11.078c-0.003906-0.85547-0.70312-1.5508-1.5625-1.5547zm18.754 9.4961v9.2852 0.039062 12.355 0.039063 9.2617c-5.3711-0.59375-10.172-3.9141-12.5-8.8672v-13.211c2.3281-4.9531 7.1289-8.3086 12.5-8.9023zm-21.879 9.25h6.25v12.508h-6.25zm25.004 2.9219 4.6992 3.1289c-0.007813 0.066406-0.011719 0.13672-0.015625 0.20312 0 0.066406 0.007812 0.13281 0.011719 0.19922l-4.6953 3.1289z"/></svg>
