<?xml version="1.0" encoding="utf-8"?>
<svg xmlns="http://www.w3.org/2000/svg" viewBox="0 0 470.538 122.121" width="470.538pt" height="122.121pt">
  <path d="M 295.361 294.069 C 294.929 293.422 285.014 278.224 280.163 274.29 C 277.091 271.757 275.744 268.254 275.474 262.326 L 284.69 261.895 L 287.977 252.571 L 269.599 242.223 L 262.108 -22.875 C 260.276 -40.336 258.713 -51.923 252.622 -65.074 C 249.766 -69.222 249.496 -71.379 248.957 -76.068 C 251.275 -85.553 249.711 -96.277 244.161 -108.83 C 245.077 -114.92 243.245 -122.04 238.394 -131.25 L 231.442 -174.21 L 225.46 -131.63 C 220.718 -122.36 219.047 -115.19 220.071 -109.11 C 214.736 -96.441 213.389 -85.717 215.867 -76.285 C 215.76 -75.638 215.652 -75.045 215.597 -74.454 C 215.059 -70.896 214.734 -68.581 212.309 -65.023 C 206.382 -51.443 204.496 -38.561 203.363 -22.07 L 200.938 242.328 L 182.776 252.998 L 186.225 262.268 L 195.441 262.542 C 195.279 268.465 193.986 272.027 190.967 274.614 C 186.225 278.656 175.824 294.01 175.338 294.662 L 174.206 296.328 L 235.213 296.328 L 296.327 295.789 L 295.25 294.123 L 295.361 294.069 Z M 227.564 -130.77 L 227.564 -130.98 L 236.348 -130.88 L 236.348 -130.72 C 236.348 -130.72 236.509 -130.39 236.509 -130.39 C 240.983 -122.04 242.707 -115.57 242.114 -110.08 L 222.336 -110.08 C 221.527 -115.63 223.199 -122.2 227.618 -130.82 L 227.564 -130.77 Z M 222.013 -107.86 L 242.223 -107.86 C 247.451 -96.008 248.96 -85.983 247.02 -77.145 L 217.971 -77.145 C 215.761 -85.929 217.108 -95.953 222.013 -107.86 Z M 214.252 -63.94 C 214.252 -63.94 214.522 -64.424 214.684 -64.64 L 250.414 -64.533 C 250.414 -64.533 250.63 -64.156 250.791 -63.886 C 256.773 -50.951 258.175 -39.741 259.952 -22.603 L 260.222 -13.279 L 243.677 -13.279 L 243.677 5.261 L 260.708 5.261 L 262.756 78.178 L 204.606 78.178 L 205.253 5.261 L 207.731 5.261 L 209.726 -14.949 L 243.625 -14.949 L 234.571 -28.476 L 206.007 -28.476 C 207.192 -41.627 209.24 -52.621 214.145 -63.83 L 214.252 -63.94 Z M 227.294 294.177 L 236.564 216.518 L 209.079 216.518 L 213.768 294.177 L 178.361 294.177 C 181.271 290.027 188.816 279.356 192.427 276.284 C 197.007 272.35 197.655 266.637 197.655 261.572 L 197.655 260.548 L 187.792 260.278 L 185.474 254.08 L 203.15 243.731 L 204.498 97.466 L 219.696 97.36 L 219.696 145.055 L 234.032 145.055 L 234.032 97.36 L 255.266 97.466 L 255.266 145.161 L 264.643 145.161 L 266.638 216.569 L 249.284 216.569 L 249.391 294.123 L 235.595 294.231 L 227.188 294.231 L 227.294 294.177 Z" style="stroke-width: 1px; transform-origin: 235.267px 61.061px 0px;" transform="matrix(0, 1, -1, 0, 0.00000293, 0.00000635)"/>
  <path d="M 142.021 52.415 L 113.189 52.415 L 113.189 71.385 L 142.021 71.385 L 142.021 52.415 Z M 115.345 62.762 L 139.867 62.762 L 139.867 65.241 L 115.345 65.241 L 115.345 62.762 Z M 122.998 60.606 L 122.998 57.966 L 139.866 57.966 L 139.866 60.606 L 122.998 60.606 Z M 139.866 55.81 L 122.998 55.81 L 122.998 54.517 L 139.866 54.517 L 139.866 55.81 Z M 115.344 69.228 L 115.344 67.397 L 139.866 67.397 L 139.866 69.228 L 115.344 69.228 Z" style="stroke-width: 1px; transform-origin: 127.605px 61.9px 0px;" transform="matrix(0, 1, -1, 0, -0.00001038, -0.00000183)"/>
</svg>