<svg xmlns="http://www.w3.org/2000/svg" viewBox="0 0 100 100" fill="currentColor"><path d="M50,47a3,3,0,1,0,3,3A3,3,0,0,0,50,47Zm0,4a1,1,0,1,1,1-1A1,1,0,0,1,50,51Zm11.69-8.44a1,1,0,0,0,1.41,0l7.78-7.78h0L88.56,17.1a1,1,0,0,0,.29-.71,1,1,0,0,0-.29-.7l-4.25-4.25a1,1,0,0,0-1.41,0l-7.07,7.07h0L57.44,36.9a1,1,0,0,0-.29.71,1,1,0,0,0,.29.7l1.42,1.42L57,41.55a11,11,0,0,0-14.06,0L13.71,12.29a1,1,0,0,0-1.42,1.42L41.55,43a10.94,10.94,0,0,0-2.37,5.12L33.8,53.46a1,1,0,0,0,0,1.42l3,2.95L34.88,59.7a1,1,0,0,0,0,1.42l4,4a1,1,0,0,0,1.42,0l1.87-1.88,2.95,3a1,1,0,0,0,1.42,0l5.37-5.38A10.94,10.94,0,0,0,57,58.45L85.79,87.21a1,1,0,0,0,1.42,0,1,1,0,0,0,0-1.42L58.45,57a11,11,0,0,0,0-14.06l1.82-1.83ZM39.59,63,37,60.41l1.17-1.17,2.59,2.59Zm6.24,1.08-9.91-9.91L39.05,51A11,11,0,0,0,49,61ZM50,59a9,9,0,1,1,9-9A9,9,0,0,1,50,59ZM65.93,31.24l2.83,2.83-2.12,2.12-2.83-2.83Zm3.53-3.53,2.83,2.83-2.12,2.12-2.83-2.83ZM73,24.17,75.83,27l-2.12,2.12-2.83-2.83Zm3.54-3.53,2.82,2.82-2.12,2.13-2.83-2.83Zm3.53-3.54,2.83,2.83-2.12,2.12L78,19.22Zm3.54-3.54,2.83,2.83-2.13,2.13-2.82-2.83ZM62.39,34.78l2.83,2.83-2.83,2.83-2.83-2.83Z"/></svg>
